<mxfile host="app.diagrams.net" modified="2024-03-09T13:49:55.722Z" agent="Mozilla/5.0 (Windows NT 10.0; Win64; x64) AppleWebKit/537.36 (KHTML, like Gecko) Chrome/120.0.0.0 YaBrowser/24.1.0.0 Safari/537.36" version="24.0.4" etag="_xW8ICZf0rlhCWv8MOWZ" type="device">
  <diagram id="XSatzom1_nx8gPyAClSu" name="Страница — 1">
    <mxGraphModel dx="656" dy="354" grid="1" gridSize="10" guides="1" tooltips="1" connect="1" arrows="1" fold="1" page="1" pageScale="1" pageWidth="827" pageHeight="1169" math="0" shadow="0">
      <root>
        <mxCell id="0" />
        <mxCell id="1" parent="0" />
        <mxCell id="lGFxfpjj-9nTzFYBoIne-5" style="edgeStyle=orthogonalEdgeStyle;rounded=0;orthogonalLoop=1;jettySize=auto;html=1;entryX=0;entryY=0.5;entryDx=0;entryDy=0;" edge="1" parent="1" source="lGFxfpjj-9nTzFYBoIne-1" target="lGFxfpjj-9nTzFYBoIne-4">
          <mxGeometry relative="1" as="geometry" />
        </mxCell>
        <mxCell id="lGFxfpjj-9nTzFYBoIne-6" style="edgeStyle=orthogonalEdgeStyle;rounded=0;orthogonalLoop=1;jettySize=auto;html=1;exitX=1;exitY=0.5;exitDx=0;exitDy=0;entryX=0;entryY=0.5;entryDx=0;entryDy=0;" edge="1" parent="1" source="lGFxfpjj-9nTzFYBoIne-1" target="lGFxfpjj-9nTzFYBoIne-3">
          <mxGeometry relative="1" as="geometry" />
        </mxCell>
        <mxCell id="lGFxfpjj-9nTzFYBoIne-1" value="h" style="ellipse;whiteSpace=wrap;html=1;" vertex="1" parent="1">
          <mxGeometry x="170" y="210" width="40" height="50" as="geometry" />
        </mxCell>
        <mxCell id="lGFxfpjj-9nTzFYBoIne-3" value="g" style="ellipse;whiteSpace=wrap;html=1;" vertex="1" parent="1">
          <mxGeometry x="250" y="270" width="40" height="50" as="geometry" />
        </mxCell>
        <mxCell id="lGFxfpjj-9nTzFYBoIne-4" value="r" style="ellipse;whiteSpace=wrap;html=1;" vertex="1" parent="1">
          <mxGeometry x="250" y="150" width="40" height="50" as="geometry" />
        </mxCell>
      </root>
    </mxGraphModel>
  </diagram>
</mxfile>
